<svg width="600" height="400" viewBox="0 0 600 400" fill="none" xmlns="http://www.w3.org/2000/svg">
  <!-- Background -->
  <rect width="600" height="400" fill="#F8FAFC"/>
  
  <!-- Dashboard Container -->
  <rect x="100" y="80" width="400" height="240" rx="12" fill="white" stroke="#E2E8F0" stroke-width="2"/>
  
  <!-- Header -->
  <rect x="100" y="80" width="400" height="50" rx="12" fill="#2563EB" fill-opacity="0.1"/>
  <circle cx="130" cy="105" r="8" fill="#2563EB"/>
  <rect x="150" y="98" width="100" height="14" rx="7" fill="#2563EB" fill-opacity="0.3"/>
  
  <!-- Chart 1 - Bar Chart -->
  <rect x="120" y="160" width="160" height="120" rx="8" fill="#F1F5F9"/>
  <rect x="135" y="230" width="20" height="40" rx="4" fill="#2563EB"/>
  <rect x="165" y="210" width="20" height="60" rx="4" fill="#0891B2"/>
  <rect x="195" y="220" width="20" height="50" rx="4" fill="#2563EB"/>
  <rect x="225" y="200" width="20" height="70" rx="4" fill="#0891B2"/>
  
  <!-- Chart 2 - Line Chart -->
  <rect x="300" y="160" width="180" height="120" rx="8" fill="#F1F5F9"/>
  <path d="M320 240 L360 220 L400 230 L440 200 L460 210" stroke="#2563EB" stroke-width="3" fill="none" stroke-linecap="round" stroke-linejoin="round"/>
  <circle cx="320" cy="240" r="4" fill="#2563EB"/>
  <circle cx="360" cy="220" r="4" fill="#2563EB"/>
  <circle cx="400" cy="230" r="4" fill="#2563EB"/>
  <circle cx="440" cy="200" r="4" fill="#2563EB"/>
  <circle cx="460" cy="210" r="4" fill="#2563EB"/>
  
  <!-- Decorative Elements -->
  <circle cx="550" cy="50" r="30" fill="#2563EB" fill-opacity="0.1"/>
  <circle cx="50" cy="350" r="40" fill="#0891B2" fill-opacity="0.1"/>
  
  <!-- Code Brackets -->
  <text x="250" y="360" font-family="monospace" font-size="48" fill="#2563EB" opacity="0.2">&lt;/&gt;</text>
</svg>